<svg id="Graphic_Elements" data-name="Graphic Elements" xmlns="http://www.w3.org/2000/svg" viewBox="0 0 1200 1200"><defs><style>.cls-1,.cls-10,.cls-12,.cls-3,.cls-4,.cls-6,.cls-7,.cls-9{fill:none;stroke:#000;}.cls-1,.cls-10,.cls-12,.cls-3,.cls-4,.cls-7,.cls-9{stroke-linejoin:round;}.cls-1{stroke-width:1.32px;}.cls-2{fill:#fffcfc;}.cls-11,.cls-14,.cls-2,.cls-5,.cls-8{fill-rule:evenodd;}.cls-3{stroke-dashoffset:42.63px;stroke-width:4.45px;stroke-dasharray:4.45 53.38;}.cls-4{stroke-width:7.91px;stroke-dasharray:15.82 15.82;}.cls-6{stroke-miterlimit:10;stroke-width:3.95px;}.cls-7{stroke-width:7.1px;}.cls-8{fill:#6e6e6e;}.cls-9{stroke-width:4.69px;}.cls-10{stroke-width:4.16px;}.cls-11{fill:#fff;}.cls-12{stroke-width:6.61px;}.cls-13{fill:#fff6f6;}.cls-14{fill:#888;}</style></defs><path class="cls-1" d="M753.45,560c15.3,57.11.24,113.31-41.56,155.12s-98,56.86-155.12,41.56-98.25-56.44-113.56-113.56S443,529.82,484.78,488s98-56.87,155.12-41.57S738.12,502.89,753.42,560"/><path class="cls-2" d="M543.81,570.07l-435-251.14Zm86-23L881,112Zm23,86,435,251.14Zm-86,23-251.14,435Z"/><path class="cls-3" d="M543.81,570.07l-435-251.14Zm86-23L881,112Zm23,86,435,251.14Zm-86,23-251.14,435Z"/><path class="cls-4" d="M904.7,519.46C950,688.57,849.55,862.6,680.43,907.92S337.29,852.76,292,683.64,347.13,340.5,516.24,295.18s343.13,55.17,388.45,224.28Z"/><path class="cls-5" d="M908.72,534.44a15.81,15.81,0,1,1,11.19-19.37,15.82,15.82,0,0,1-11.19,19.37Z"/><path class="cls-6" d="M908.72,534.44a15.81,15.81,0,1,1,11.19-19.37,15.82,15.82,0,0,1-11.19,19.37Z"/><path class="cls-5" d="M665.46,911.94a15.81,15.81,0,1,1,19.37,11.18,15.81,15.81,0,0,1-19.37-11.18Z"/><path class="cls-6" d="M665.46,911.94a15.81,15.81,0,1,1,19.37,11.18,15.81,15.81,0,0,1-19.37-11.18Z"/><path class="cls-5" d="M288,668.67A15.82,15.82,0,1,1,276.78,688,15.82,15.82,0,0,1,288,668.67Z"/><path class="cls-6" d="M288,668.67A15.82,15.82,0,1,1,276.78,688,15.82,15.82,0,0,1,288,668.67Z"/><path class="cls-5" d="M531.2,291.18A15.81,15.81,0,1,1,511.83,280a15.82,15.82,0,0,1,19.37,11.19Z"/><path class="cls-6" d="M531.2,291.18A15.81,15.81,0,1,1,511.83,280a15.82,15.82,0,0,1,19.37,11.19Z"/><path class="cls-7" d="M873.27,527.89c40.67,151.76-49.5,308-201.27,348.6S364.06,827,323.41,675.23s49.5-308,201.26-348.6,307.92,49.49,348.6,201.26Z"/><polygon class="cls-8" points="850.46 533.99 636.58 623.64 665.88 853.67 576.25 639.8 346.2 669.1 560.08 579.47 530.78 349.42 620.43 563.29 850.46 533.99"/><polygon class="cls-5" points="948.16 803.53 614.8 663 396.37 951.38 536.88 618.01 248.51 399.58 581.86 540.1 800.31 251.73 659.78 585.08 948.16 803.53"/><polygon class="cls-9" points="948.16 803.53 614.8 663 396.37 951.38 536.88 618.01 248.51 399.58 581.86 540.1 800.31 251.73 659.78 585.08 948.16 803.53"/><path class="cls-10" d="M590.39,417.51c.92-3.7,16.71-3.07,15.87.28-3.84,28.15-2.07,37-2.07,37l-12.35-.25c.54,2.76,2.22-19.07-1.46-37m93.08,20.69c2.66-2.75,16,5.69,13.61,8.17-17.41,22.47-20.3,31-20.3,31L666.2,471c-.87,2.67,11.49-15.41,17.28-32.78m70.26,64.46c3.68-1.05,11,12.93,7.7,13.88-26.31,10.75-33.08,16.7-33.08,16.7l-6-10.82c-2.09,1.84,17.66-7.62,31.34-19.78m28.63,90.95c3.71.93,3.07,16.71-.28,15.87-28.15-3.84-37-2.07-37-2.07l.25-12.35c-2.76.56,19.1,2.22,37-1.46M761.7,686.68c2.74,2.66-5.7,16-8.18,13.61-22.47-17.41-31-20.3-31-20.3l6.38-10.57c-2.69-.87,15.4,11.49,32.78,17.28M697.23,757c1,3.68-12.94,11-13.89,7.7-10.75-26.31-16.7-33.08-16.7-33.08l10.81-6c-1.86-2.08,7.61,17.66,19.77,31.34m-91,28.63c-.93,3.7-16.71,3.07-15.87-.28,3.84-28.16,2.07-37,2.07-37l12.35.25c-.56-2.71-2.24,19.12,1.46,37m-93.09-20.66c-2.65,2.75-16-5.69-13.6-8.18,17.4-22.46,20.3-31,20.3-31l10.56,6.39c.86-2.67-11.5,15.39-17.27,32.78m-70.29-64.46c-3.67,1-11-12.94-7.7-13.88,26.31-10.76,33.08-16.71,33.08-16.71l6,10.82c2.11-1.86-17.63,7.61-31.34,19.77m-28.63-91c-3.7-.93-3.07-16.71.28-15.88,28.16,3.84,37,2.08,37,2.08l-.25,12.35c2.76-.57-19.07-2.23-37,1.45M435,516.44c-2.75-2.66,5.69-16,8.17-13.6,22.47,17.4,31,20.29,31,20.29l-6.39,10.57c2.65.85-15.44-11.51-32.8-17.28m64.46-70.28c-1.05-3.68,12.93-11,13.88-7.7C524,464.75,530,471.52,530,471.52l-10.82,6c1.84,2.11-7.62-17.64-19.78-31.34"/><polygon class="cls-11" points="626.53 609.49 660.92 601.32 895.8 764.96 626.53 609.49"/><polygon class="cls-11" points="593.03 627.1 600.51 662.48 437.56 896.39 593.03 627.1"/><polygon class="cls-11" points="570.13 593.6 534.66 601.03 300.86 438.15 570.13 593.6"/><polygon class="cls-11" points="606.27 573.35 600.13 536.08 761.75 304.08 606.27 573.35"/><path class="cls-2" d="M643.94,589.34A47.21,47.21,0,1,1,586.12,556a47.23,47.23,0,0,1,57.82,33.38Z"/><path class="cls-12" d="M643.94,589.34A47.21,47.21,0,1,1,586.12,556a47.23,47.23,0,0,1,57.82,33.38Z"/><path d="M883,50l17.19,9.92,12,48,10.65-18.44A16.33,16.33,0,0,0,925,82.91a9.71,9.71,0,0,0-1.11-5.76,9.5,9.5,0,0,0-1.74-2.4,22.9,22.9,0,0,0-3-2.36l.66-1.13L941,83.5l-.66,1.13-.43-.24q-4.62-2.67-8.74-1.13c-2.75,1-5.19,3.41-7.35,7.15L906.14,121l-1-.58-15-59.28L875.42,86.57A18.93,18.93,0,0,0,872.88,93a8.23,8.23,0,0,0,.88,5.14,11.29,11.29,0,0,0,3.22,3.54,35,35,0,0,0,3.51,2.43l-.66,1.13L857.5,92.36l.65-1.13a17.34,17.34,0,0,0,6.29,2A7.62,7.62,0,0,0,869.39,92a12.68,12.68,0,0,0,3.92-4.43l14-24.2A7.92,7.92,0,0,0,888.48,59,7.42,7.42,0,0,0,887,55a12.92,12.92,0,0,0-4.11-3.49l-.55-.32L883,50Z"/><path d="M328.91,1110.89l1.07.62-8.47,14.67-1.08-.62a32.33,32.33,0,0,0,.4-10.79,19.92,19.92,0,0,0-2.35-6.24,28.15,28.15,0,0,0-4.57-6,29.5,29.5,0,0,0-6.2-4.78,15.65,15.65,0,0,0-4.94-1.92,10.31,10.31,0,0,0-4.57.14,9.08,9.08,0,0,0-2.84,1.31,6.18,6.18,0,0,0-1.94,2,5.68,5.68,0,0,0-.49,4.66,10,10,0,0,0,1.34,2.74,28.85,28.85,0,0,0,2.88,3.5c1.25,1.31,3,3.08,5.34,5.29a17.07,17.07,0,0,0,1.27,1.26l1.29,1.23,2,2a76.92,76.92,0,0,1,7.26,7.87,17.3,17.3,0,0,1,2.93,5.89,11.69,11.69,0,0,1,.42,4.74,11.87,11.87,0,0,1-1.56,4.65,12.87,12.87,0,0,1-3.51,3.88,13.62,13.62,0,0,1-4.95,2.35,16.48,16.48,0,0,1-7.61.27,26.6,26.6,0,0,1-8.25-3.22,28.86,28.86,0,0,1-5.24-3.82,46.05,46.05,0,0,1-5.13-5.88,40.63,40.63,0,0,0-3-3.49,10.8,10.8,0,0,0-2.21-1.75,6.79,6.79,0,0,0-4.36-1,6.32,6.32,0,0,0-3.89,2.1L267,1132l11.43-19.78,1.07.61a20.75,20.75,0,0,0-1.26,12,29.18,29.18,0,0,0,2.86,7.88,35.19,35.19,0,0,0,5.16,7.45,26.54,26.54,0,0,0,6.35,5.26,16.66,16.66,0,0,0,6,2.16,10.35,10.35,0,0,0,5.41-.5,7.2,7.2,0,0,0,3.67-3.16,6.72,6.72,0,0,0,.55-5.28,10.62,10.62,0,0,0-1.34-2.81,29.65,29.65,0,0,0-2.69-3.48c-1.15-1.32-2.8-3-4.92-5.17l-2.58-2.59q-6.06-6.08-8.19-8.73a29,29,0,0,1-3.55-5.08,13.31,13.31,0,0,1-1.39-4.63,9.9,9.9,0,0,1,1.22-6.49,12,12,0,0,1,5.8-5.17,15.92,15.92,0,0,1,8.46-1,24.9,24.9,0,0,1,9.35,3.27,36.26,36.26,0,0,1,12.24,12.26,11.81,11.81,0,0,0,2.83,3.38c1.52.92,3.34.41,5.4-1.55Z"/><path d="M55.89,255.63l22.27,12.86-.59,1.17a10.14,10.14,0,0,0-4.42-1.57,2.7,2.7,0,0,0-2.54,1.47A11.11,11.11,0,0,0,69.37,273L64,303.22l21.27-16.68a36.33,36.33,0,0,0,.77-5.69,12.84,12.84,0,0,0-.53-3.86,7.42,7.42,0,0,0-1.35-2.94,9.07,9.07,0,0,0-2.6-2.11l.66-1.13,23.22,13.4-.66,1.14-1.13-.66a9.58,9.58,0,0,0-4.83-1.54A3.43,3.43,0,0,0,95.69,285a6.79,6.79,0,0,0-.88,2.51L89.51,318l22.34-17.82a11.89,11.89,0,0,0,2.62-3,4.38,4.38,0,0,0,.18-4.47q-1.12-2.18-4.82-4.42l.6-1.17L127.61,297l-.65,1.14a11.12,11.12,0,0,0-3.08-1.07,11.63,11.63,0,0,0-3.11,0,17.85,17.85,0,0,0-8.14,4L79.44,327.55l-1.13-.66L85,288.25,53.86,312.79l-1.2-.7,7.19-41a21.1,21.1,0,0,0,.21-8.79,7.72,7.72,0,0,0-3.75-4.9l-1.07-.62.65-1.12Z"/><path d="M1101.82,860.67,1147.34,887l-9.57,16.57-.92-.53a57,57,0,0,0,1.51-7.81,21.45,21.45,0,0,0-.23-5.58,13.24,13.24,0,0,0-2.3-5.7,27.64,27.64,0,0,0-8.26-6.86l-8.43-4.86-11.74,20.34,2.27,1.31a10.67,10.67,0,0,0,10.54.28,18.21,18.21,0,0,0,5.34-4,32.94,32.94,0,0,0,2.92-3.5l1.08.62-16.21,28.06-1.07-.62q.95-2.48,1.6-4.78a18.86,18.86,0,0,0,.74-3.91,16.91,16.91,0,0,0-.15-3.44q-.8-5-5.88-7.93l-1.78-1-11,19.15,7,4.07a38.07,38.07,0,0,0,5.88,2.8,20.72,20.72,0,0,0,5.28,1.21,19.11,19.11,0,0,0,5.15-.28,19.68,19.68,0,0,0,8.31-3.65,52.55,52.55,0,0,0,5.39-4.73l1.13.65-10.17,17.62-46.59-26.9.59-1.17,1.17.67q7.78,4.5,12.31-3.35l14.37-24.91c1.54-2.65,2-5,1.5-7s-2.13-3.76-4.78-5.3l-1.17-.67.65-1.17Z"/><path class="cls-13" d="M892.68,60.49q6.92,27.32,13.82,54.63c6.71-8-1.39-18.08-2.07-27.11-2.87-8.78-3.46-19.27-7.71-27C895.33,61,890.19,55.47,892.68,60.49Zm34.77,18.84c-.24,3.21.95,2.41,3.22,1.28-.43.26-4.17-3.31-3.21-1.28ZM870,94.75C865.49,95.35,872.26,98.11,870,94.75Z"/><path class="cls-13" d="M324.35,1115.49C322.4,1114.64,324.26,1119.39,324.35,1115.49ZM291.64,1097c-7.61,2.87-6.48,12.87-1.11,17.29,6.29,8.87,18.07,14.68,20.57,25.76,1,2.21-3.19,7.74.39,4.61,7.33-5.63,1.92-15.92-3.94-20.35-5.81-7.44-17.26-12.63-17.5-23.07,0-1.44,1.67-4,1.62-4.27Zm-19.22,30.92c2.16-.31,5.37,2.2,3.35-1.6-.62-6.19-1.07-1.3-3.35,1.59Z"/><path class="cls-13" d="M63,263.58c-.4,14.78-5,29.38-6.86,44.11,9.05-5,6-17.17,9-25.74,1.48-5,.6-11.37,4.59-15.3-1.59-.36-6.85-5.07-6.72-3.08Zm25.36,13.91c.77,12.67-4.24,26.49-5.69,39.84-1.26,11.56,8-6,6.32-11.54,2.76-7.73.28-18.19,6.45-24.3-2.28-1.28-5-3-7.08-4Zm29.49,17.41C118.48,295.78,118.31,293.49,117.81,294.9Z"/><path class="cls-13" d="M1110,868.7c-.94,10.56-10,18.5-14,28-2.17,3.69-4.09,8.15-8.28,9.87,8.38,8.94,10.41-5.86,15-11.21L1116.17,872c-1.84-.92-4.78-3.08-6.17-3.32Zm30,17.62c1.26,1.69.26,9.24,2.38,3.89,3.95-2.26-2.85-5-2.38-3.9Zm-19.43,10.54c-2.51,1.14-6.16.46-3.82,3.9-.07,7.09,3.61-4.29,3.81-3.91Zm5.16,24.16a23.65,23.65,0,0,1-8.68,2.48c5.88,5.25,7.38,1.59,8.68-2.47Z"/><path class="cls-14" d="M565.64,585.77c-6.41,26,8.4,45.17,44.42,54.85.36.44-26.32,2.26-39.43-10.88-15.64-15.68-8.91-45.48-5-44Z"/><path class="cls-14" d="M627,629.72c16.74-23,7.24-58.76-19-70-.13-.55,16.23,5.14,26.59,20.55,14.9,22.21-2.94,52.84-7.63,49.45Z"/></svg>