<svg width="150" height="150" viewBox="0 0 150 150" fill="none" xmlns="http://www.w3.org/2000/svg">
<g clip-path="url(#clip0_209_2)">
<path d="M75 150C116.421 150 150 116.421 150 75C150 33.5786 116.421 0 75 0C33.5786 0 0 33.5786 0 75C0 116.421 33.5786 150 75 150Z" fill="white"/>
<path d="M68.2788 112.26C64.687 113.194 60.8954 113.002 57.4159 111.712C53.9364 110.422 50.9366 108.095 48.8217 105.045C47.5229 103.228 46.5999 101.17 46.107 98.9912C45.614 96.8127 45.5611 94.5576 45.9512 92.3583C46.0842 91.636 46.267 90.9238 46.4983 90.2268L46.9271 88.916L48.099 89.7735C50.799 91.7569 53.8177 93.2649 57.0252 94.2325L57.8745 94.4898L57.7928 95.3391C57.6908 96.5423 58.0177 97.7429 58.7157 98.7283C59.352 99.6473 60.2552 100.349 61.3031 100.738C62.3511 101.127 63.4932 101.185 64.5752 100.905C65.0706 100.773 65.5429 100.567 65.9758 100.292L88.8017 85.7474C89.3592 85.3952 89.8373 84.9309 90.2057 84.384C90.574 83.8371 90.8245 83.2195 90.9413 82.5705C91.0589 81.9075 91.0433 81.2277 90.8953 80.5708C90.7474 79.9139 90.4702 79.2931 90.0797 78.7444C89.4429 77.8258 88.5397 77.1247 87.4919 76.7355C86.4441 76.3463 85.3022 76.2879 84.2202 76.568C83.7248 76.6995 83.2524 76.9061 82.8196 77.1805L74.1098 82.7339C72.6778 83.6453 71.1149 84.3324 69.4752 84.7714C65.8839 85.7051 62.0925 85.5143 58.613 84.2247C55.1336 82.9352 52.1336 80.609 50.0182 77.5603C48.7193 75.7424 47.7966 73.6834 47.3044 71.504C46.8121 69.3247 46.7602 67.069 47.1517 64.8693C47.5387 62.7138 48.3712 60.6628 49.596 58.8473C50.8209 57.0319 52.411 55.492 54.2648 54.3261L77.0866 39.7772C78.5184 38.8654 80.0813 38.1783 81.7212 37.7396C85.3129 36.8064 89.1046 36.9978 92.5841 38.2881C96.0636 39.5784 99.0633 41.9054 101.178 44.9549C102.477 46.772 103.4 48.8302 103.893 51.0088C104.386 53.1874 104.439 55.4425 104.049 57.6418C103.915 58.3639 103.732 59.0761 103.502 59.7733L103.073 61.084L101.905 60.2265C99.2044 58.2409 96.1841 56.7315 92.9748 55.7634L92.1255 55.5062L92.2072 54.6609C92.3094 53.4564 91.9825 52.2545 91.2843 51.2677C90.6474 50.3494 89.744 49.6487 88.6961 49.2602C87.6482 48.8717 86.5064 48.8142 85.4247 49.0954C84.9294 49.2269 84.4571 49.4335 84.0242 49.7079L61.1983 64.2527C60.6405 64.6045 60.1621 65.0686 59.7937 65.6156C59.4253 66.1626 59.1749 66.7804 59.0587 67.4295C58.9406 68.0925 58.956 68.7724 59.104 69.4294C59.2519 70.0863 59.5294 70.7072 59.9202 71.2556C60.557 72.1742 61.4602 72.8754 62.508 73.2646C63.5558 73.6537 64.6978 73.7122 65.7798 73.432C66.2767 73.2993 66.7504 73.0914 67.1845 72.8154L75.8902 67.2621C77.322 66.3515 78.8851 65.6657 80.5247 65.2286C84.1161 64.295 87.9075 64.4858 91.3869 65.7753C94.8664 67.0649 97.8664 69.3911 99.9818 72.4398C101.281 74.2577 102.203 76.3167 102.696 78.496C103.188 80.6754 103.24 82.9311 102.848 85.1308C102.461 87.2868 101.629 89.3385 100.404 91.1546C99.1793 92.9707 97.5891 94.5113 95.7351 95.678L72.9134 110.223C71.4816 111.135 69.9186 111.822 68.2788 112.26ZM110.574 38.9646C101.476 25.9388 83.5015 22.08 70.5083 30.361L47.6825 44.9059C44.6 46.8459 41.9561 49.4077 39.9199 52.4275C37.8837 55.4473 36.5 58.8588 35.8572 62.4438C34.768 68.4837 35.7251 74.7144 38.5767 80.1491C36.6221 83.1118 35.2886 86.4401 34.6567 89.9328C34.0072 93.59 34.0945 97.3401 34.9135 100.963C35.7325 104.586 37.2666 108.009 39.426 111.031C48.5277 124.057 66.4985 127.916 79.4917 119.639L102.317 105.094C105.4 103.155 108.044 100.593 110.081 97.573C112.117 94.5531 113.5 91.1414 114.143 87.5563C115.232 81.5168 114.277 75.2864 111.427 69.8509C113.379 66.8876 114.71 63.5594 115.339 60.0673C115.99 56.4097 115.904 52.6589 115.086 49.0351C114.268 45.4113 112.734 41.9875 110.574 38.9646Z" fill="#FF3E00"/>
</g>
<defs>
<clipPath id="clip0_209_2">
<rect width="150" height="150" fill="white"/>
</clipPath>
</defs>
</svg>
